<?xml version="1.0" standalone="no"?>
<!DOCTYPE svg PUBLIC "-//W3C//DTD SVG 20010904//EN"
 "http://www.w3.org/TR/2001/REC-SVG-20010904/DTD/svg10.dtd">
<svg version="1.0" xmlns="http://www.w3.org/2000/svg"
 width="1024.000000pt" height="1024.000000pt" viewBox="0 0 1024.000000 1024.000000"
 preserveAspectRatio="xMidYMid meet">

<g transform="translate(0.000000,1024.000000) scale(0.100000,-0.100000)"
fill="#000000" stroke="none">
<path d="M1369 5855 c-3 -3 -34 -5 -70 -6 -49 -1 -72 -6 -101 -25 -45 -29 -53
-60 -52 -194 2 -170 5 -190 34 -190 10 0 22 -5 25 -10 4 -6 10 -8 14 -6 4 3
25 -12 46 -34 21 -22 43 -36 48 -33 6 3 7 2 4 -4 -3 -5 2 -23 12 -40 10 -16
22 -53 26 -81 6 -43 3 -60 -21 -112 -15 -34 -39 -70 -53 -81 -14 -12 -26 -26
-26 -32 0 -5 -7 -12 -15 -14 -13 -4 -13 -3 0 6 19 14 5 14 -21 0 -11 -5 -17
-14 -14 -19 3 -6 -1 -7 -10 -4 -8 4 -22 1 -30 -6 -12 -10 -14 -43 -14 -169 0
-184 10 -219 69 -235 43 -11 1291 -17 1521 -7 184 8 200 14 207 75 2 17 6 45
10 61 5 17 7 73 6 125 -2 52 -3 108 -3 123 -1 16 -5 26 -11 22 -5 -3 -7 0 -4
8 3 10 -5 18 -25 25 -17 6 -31 9 -31 7 0 -3 -8 2 -17 10 -51 41 -67 56 -53 50
13 -6 13 -5 0 7 -31 27 -45 71 -45 142 0 48 6 79 17 96 8 14 14 33 13 43 -2
11 -1 16 2 13 10 -9 44 15 37 26 -4 7 -3 8 4 4 6 -4 20 2 32 14 11 11 21 20
23 19 1 0 14 4 30 10 24 9 27 16 28 58 5 177 -5 284 -29 313 -15 18 -33 20
-177 25 -88 3 -173 7 -190 10 -41 7 -1190 16 -1196 10z m641 -368 c0 4 6 1 13
-7 12 -15 86 -63 137 -88 14 -7 40 -21 58 -32 18 -11 34 -19 36 -17 2 1 31
-19 64 -45 55 -43 60 -50 63 -91 2 -25 1 -44 -2 -42 -3 2 -12 -4 -21 -13 -20
-22 -57 -52 -64 -52 -3 0 -18 -9 -34 -20 -15 -11 -30 -17 -34 -13 -3 3 -6 -1
-6 -11 0 -9 -4 -15 -9 -12 -12 8 -98 -41 -111 -62 -5 -10 -10 -14 -10 -9 0 4
-23 -4 -52 -19 -34 -17 -47 -28 -38 -34 8 -5 8 -10 2 -14 -6 -3 -12 -1 -14 6
-2 6 -10 8 -17 4 -7 -5 -10 -14 -8 -20 3 -7 -1 -13 -9 -13 -7 0 -11 4 -8 9 3
4 2 8 -3 8 -12 -1 -43 -26 -38 -32 15 -14 -76 0 -93 15 -11 10 -27 15 -38 11
-14 -4 -16 -3 -5 4 11 8 13 57 12 264 -1 140 1 278 5 307 6 47 10 54 43 70
l36 19 72 -40 c40 -22 73 -36 73 -31z m172 -64 c-6 -2 -10 -8 -7 -13 3 -4 -5
-6 -17 -2 -21 5 -21 6 -2 13 10 4 24 8 29 8 6 -1 4 -3 -3 -6z m-25 -446 c0 -8
-6 -14 -14 -14 -9 0 -10 4 -2 14 6 7 12 13 14 13 1 0 2 -6 2 -13z"/>
</g>
</svg>
